<?xml version="1.0" encoding="UTF-8" standalone="no"?>
<!DOCTYPE svg PUBLIC "-//W3C//DTD SVG 1.1//EN" "http://www.w3.org/Graphics/SVG/1.1/DTD/svg11.dtd">
<svg width="40" height="40" viewBox="0 0 40 40" version="1.1" xmlns="http://www.w3.org/2000/svg" xmlns:xlink="http://www.w3.org/1999/xlink" xml:space="preserve" xmlns:serif="http://www.serif.com/" style="fill-rule:evenodd;clip-rule:evenodd;stroke-linejoin:round;stroke-miterlimit:2;">
    <g transform="matrix(0.9,0,0,0.9,0.2,-0.131257)">
        <path d="M3.16,20.395C4.204,20.368 5.055,20.086 5.713,19.551C6.371,19.015 6.808,18.279 7.025,17.343C7.242,16.407 7.358,14.807 7.371,12.542C7.385,10.277 7.425,8.785 7.493,8.066C7.615,6.927 7.842,6.011 8.175,5.319C8.507,4.628 8.917,4.075 9.406,3.661C9.894,3.248 10.518,2.932 11.277,2.715C11.793,2.58 12.634,2.512 13.8,2.512L14.939,2.512L14.939,5.706L14.309,5.706C12.898,5.706 11.962,5.96 11.501,6.469C11.04,6.977 10.809,8.113 10.809,9.877C10.809,13.43 10.735,15.675 10.586,16.611C10.341,18.062 9.924,19.181 9.334,19.968C8.744,20.754 7.819,21.453 6.557,22.063C8.049,22.687 9.131,23.64 9.802,24.922C10.474,26.204 10.809,28.302 10.809,31.219C10.809,33.863 10.837,35.437 10.891,35.939C10.999,36.861 11.274,37.505 11.715,37.871C12.156,38.238 13.02,38.421 14.309,38.421L14.939,38.421L14.939,41.615L13.8,41.615C12.471,41.615 11.508,41.506 10.911,41.289C10.043,40.977 9.324,40.472 8.755,39.774C8.185,39.075 7.815,38.19 7.646,37.119C7.476,36.047 7.385,34.291 7.371,31.849C7.358,29.408 7.242,27.719 7.025,26.783C6.808,25.847 6.371,25.108 5.713,24.566C5.055,24.023 4.204,23.738 3.16,23.711L3.16,20.395Z" style="fill:url(#_Linear1);fill-rule:nonzero;"/>
        <path d="M40.228,20.395L40.228,23.711C39.184,23.738 38.333,24.023 37.675,24.566C37.017,25.108 36.58,25.844 36.363,26.773C36.146,27.702 36.03,29.299 36.017,31.564C36.003,33.83 35.963,35.322 35.895,36.04C35.773,37.193 35.546,38.112 35.213,38.797C34.881,39.482 34.471,40.031 33.982,40.445C33.494,40.859 32.87,41.174 32.111,41.391C31.595,41.54 30.754,41.615 29.588,41.615L28.449,41.615L28.449,38.421L29.079,38.421C30.49,38.421 31.426,38.166 31.887,37.658C32.348,37.149 32.579,36.006 32.579,34.23C32.579,30.839 32.64,28.689 32.762,27.78C32.979,26.275 33.413,25.071 34.064,24.169C34.715,23.267 35.637,22.565 36.831,22.063C35.271,21.317 34.172,20.331 33.535,19.103C32.897,17.876 32.579,15.804 32.579,12.888C32.579,10.243 32.545,8.663 32.477,8.147C32.382,7.239 32.114,6.604 31.673,6.245C31.232,5.886 30.368,5.706 29.079,5.706L28.449,5.706L28.449,2.512L29.588,2.512C30.917,2.512 31.88,2.62 32.477,2.837C33.345,3.136 34.064,3.637 34.633,4.343C35.203,5.048 35.573,5.936 35.742,7.008C35.912,8.079 36.003,9.836 36.017,12.277C36.03,14.719 36.146,16.404 36.363,17.333C36.58,18.262 37.017,18.998 37.675,19.541C38.333,20.083 39.184,20.368 40.228,20.395Z" style="fill:url(#_Linear2);fill-rule:nonzero;"/>
    </g>
    <defs>
        <linearGradient id="_Linear1" x1="0" y1="0" x2="1" y2="0" gradientUnits="userSpaceOnUse" gradientTransform="matrix(27,0,0,29,2,17.5)"><stop offset="0" style="stop-color:rgb(0,122,204);stop-opacity:1"/><stop offset="1" style="stop-color:rgb(97,170,219);stop-opacity:1"/></linearGradient>
        <linearGradient id="_Linear2" x1="0" y1="0" x2="1" y2="0" gradientUnits="userSpaceOnUse" gradientTransform="matrix(27,0,0,29,2,17.5)"><stop offset="0" style="stop-color:rgb(0,122,204);stop-opacity:1"/><stop offset="1" style="stop-color:rgb(97,170,219);stop-opacity:1"/></linearGradient>
    </defs>
</svg>
